<?xml version="1.0" ?><svg style="enable-background:new 0 0 32 32;" version="1.1" viewBox="0 0 32 32" xml:space="preserve" xmlns="http://www.w3.org/2000/svg" xmlns:xlink="http://www.w3.org/1999/xlink"><style type="text/css">
	.st0{fill:#FF2A68;}
</style><g id="Layer_1"><g id="XMLID_65_"/></g><g id="Layer_2"><g id="XMLID_421_"><path class="st0" d="M26.9,16.5c0-4.6-2.8-8.4-7.2-9.6c-0.5-0.1-1.1,0.3-1.1,0.8l0,0.8c0,0.4,0.3,0.7,0.7,0.8    c3.3,0.8,5.5,3.7,5.5,7.1c0,3-1.6,5.5-4.2,6.7l-0.4-0.7c-0.2-0.3-0.7-0.3-0.8,0L17.2,26c-0.2,0.3,0,0.7,0.4,0.7l4.1,0    c0.4,0,0.6-0.4,0.4-0.7l-0.4-0.7C24.9,23.6,26.9,20.3,26.9,16.5z"/></g><g id="XMLID_420_"><path class="st0" d="M7.1,17.1c0,4.6,2.8,8.4,7.2,9.6c0.5,0.1,1.1-0.3,1.1-0.8l0-0.8c0-0.4-0.3-0.7-0.7-0.8    c-3.3-0.8-5.5-3.7-5.5-7.1c0-3,1.6-5.5,4.2-6.7l0.4,0.7c0.2,0.3,0.7,0.3,0.8,0l2.1-3.6c0.2-0.3,0-0.7-0.4-0.7l-4.1,0    c-0.4,0-0.6,0.4-0.4,0.7l0.4,0.7C9.1,10,7.1,13.3,7.1,17.1z"/></g><g id="XMLID_443_"><path d="M16,30.5C8,30.5,1.5,24,1.5,16S8,1.5,16,1.5S30.5,8,30.5,16S24,30.5,16,30.5z M16,2.5    C8.6,2.5,2.5,8.6,2.5,16c0,7.4,6.1,13.5,13.5,13.5c7.4,0,13.5-6.1,13.5-13.5C29.5,8.6,23.4,2.5,16,2.5z" id="XMLID_4_"/></g><g id="XMLID_61_"><path d="M20.8,26C20.8,26,20.8,26,20.8,26l-4.1,0.1c-0.4,0-0.7-0.1-0.9-0.4s-0.2-0.6,0-1l2.1-3.6    c0.2-0.3,0.5-0.5,0.9-0.5c0.4,0,0.7,0.2,0.9,0.5l0.2,0.3c2.2-1.2,3.5-3.4,3.5-6c0-1.4-0.4-2.7-1.1-3.8c-0.2-0.2-0.1-0.5,0.1-0.7    c0.2-0.2,0.5-0.1,0.7,0.1c0.8,1.3,1.3,2.8,1.3,4.4c0,3.1-1.7,5.9-4.5,7.1c-0.2,0.1-0.5,0-0.6-0.2l-0.4-0.7l-2.1,3.6l4.1,0    l-0.4-0.7c-0.1-0.1-0.1-0.3,0-0.4c0-0.1,0.1-0.2,0.2-0.3c3-1.6,4.8-4.7,4.8-8.4c0-4.4-2.7-8-6.8-9.1c-0.1,0-0.2,0-0.3,0.1    c-0.1,0-0.1,0.1-0.1,0.3l0,0.8c0,0.2,0.1,0.3,0.3,0.3c1,0.2,1.8,0.6,2.6,1.2c0.2,0.2,0.3,0.5,0.1,0.7c-0.2,0.2-0.5,0.3-0.7,0.1    c-0.7-0.5-1.5-0.8-2.3-1c-0.6-0.2-1.1-0.7-1-1.3l0-0.8c0-0.4,0.2-0.8,0.5-1.1c0.3-0.3,0.8-0.3,1.2-0.2c4.6,1.2,7.5,5.2,7.5,10.1    c0,3.8-1.8,7.1-4.9,9l0.2,0.3c0.2,0.3,0.2,0.6,0,0.9C21.4,25.9,21.1,26,20.8,26z" id="XMLID_3_"/></g><g id="XMLID_60_"><path d="M13.5,26.2c-0.1,0-0.2,0-0.4,0C8.6,25,5.6,21,5.6,16.1c0-1.5,0.3-2.9,0.8-4.2c0.1-0.3,0.4-0.4,0.7-0.3    c0.3,0.1,0.4,0.4,0.3,0.7c-0.5,1.2-0.7,2.5-0.7,3.8c0,4.4,2.7,8,6.8,9.1c0.1,0,0.2,0,0.3-0.1c0.1,0,0.1-0.1,0.1-0.3l0-0.8    c0-0.2-0.1-0.3-0.3-0.3c-3.5-0.9-5.9-3.9-5.9-7.6c0-3.1,1.7-5.9,4.5-7.1l0.4-0.2l0.6,1.1l2.1-3.6l-4.1,0l0.7,1.1l-0.5,0.2    c-1.1,0.6-2.1,1.4-2.8,2.4c-0.2,0.2-0.5,0.3-0.7,0.1C7.7,10,7.7,9.7,7.9,9.5c0.7-1,1.7-1.8,2.7-2.4l-0.2-0.3    c-0.2-0.3-0.2-0.9,0-1.2C10.6,5.4,10.9,5,11.3,5c0,0,0,0,0,0l4.1,0.2c0.4,0,0.7,0.3,0.9,0.6c0.2,0.3,0.2,0.7,0,1l-2.1,3.6    c-0.2,0.3-0.5,0.5-0.9,0.5c-0.4,0-0.7-0.2-0.9-0.5l-0.2-0.3c-2.2,1.2-3.5,3.4-3.5,6c0,3.2,2.1,5.9,5.1,6.6    c0.6,0.2,1.1,0.7,1.1,1.3l0,0.8c0,0.4-0.2,0.8-0.5,1.1C14.1,26.2,13.8,26.2,13.5,26.2z" id="XMLID_2_"/></g></g></svg>